<?xml version="1.0" encoding="UTF-8" standalone="no"?>
<svg
   height="240"
   width="240"
   viewBox="0 0 304.64088 304.64088"
   version="1.1"
   id="svg3"
   sodipodi:docname="GHS-pictogram-silhouette.svg"
   inkscape:version="1.3.2 (091e20e, 2023-11-25, custom)"
   xmlns:inkscape="http://www.inkscape.org/namespaces/inkscape"
   xmlns:sodipodi="http://sodipodi.sourceforge.net/DTD/sodipodi-0.dtd"
   xmlns="http://www.w3.org/2000/svg"
   xmlns:svg="http://www.w3.org/2000/svg"
   xmlns:inkstitch="http://inkstitch.org/namespace">
  <sodipodi:namedview
     id="namedview3"
     pagecolor="#505050"
     bordercolor="#eeeeee"
     borderopacity="1"
     inkscape:showpageshadow="0"
     inkscape:pageopacity="0"
     inkscape:pagecheckerboard="0"
     inkscape:deskcolor="#505050"
     inkscape:zoom="2.6256906"
     inkscape:cx="110.63756"
     inkscape:cy="141.10573"
     inkscape:window-width="3840"
     inkscape:window-height="2097"
     inkscape:window-x="3832"
     inkscape:window-y="32"
     inkscape:window-maximized="1"
     inkscape:current-layer="svg3" />
  <metadata
     id="metadata3">
    <inkstitch:min_stitch_len_mm>0</inkstitch:min_stitch_len_mm>
    <inkstitch:collapse_len_mm>3</inkstitch:collapse_len_mm>
    <inkstitch:inkstitch_svg_version>1</inkstitch:inkstitch_svg_version>
  </metadata>
  <defs
     id="defs3" />
  <path
     id="path1"
     d="M 152.32044,0 0,152.32044 152.32044,304.64088 304.64088,152.32044 Z m 0,24.111044 L 280.49626,152.32044 152.32044,280.49626 24.144626,152.32044 Z m 0.70354,30.207019 c -17.94446,0.0044 -32.50235,15.681472 -32.50235,35.015121 0,12.563566 4.70072,30.206866 13.86434,41.009506 l -1.1208,11.46658 -24.58539,8.90595 c 0.39282,1.92009 2.09286,3.3624 4.12471,3.3624 0.35896,0 0.70749,-0.0505 1.03936,-0.13517 0.46733,1.81512 2.11031,3.15251 4.06426,3.15251 0.20657,0 0.40972,-0.0165 0.60952,-0.047 0.48087,1.79479 2.11285,3.11893 4.06342,3.11893 0.5723,0 1.1175,-0.11498 1.61529,-0.32155 0.13207,1.34779 1.27298,2.40447 2.65802,2.40447 0.27091,0 0.53525,-0.0413 0.78246,-0.11921 0.33864,1.98104 2.06561,3.49168 4.14486,3.49168 1.61871,0 3.0241,-0.91404 3.72509,-2.25167 0.70776,0.53844 1.58803,0.8597 2.54299,0.8597 0.61972,0 1.20959,-0.13904 1.73787,-0.37948 0.5486,1.16493 1.56719,2.06292 2.80662,2.44897 -0.0474,0.15239 -0.084,0.3151 -0.084,0.48442 0,0.85676 0.69392,1.54729 1.5473,1.54729 0.85337,0 1.54729,-0.69053 1.54729,-1.54729 0,-0.18964 -0.0373,-0.36967 -0.10159,-0.53899 1.80496,-0.63326 3.10214,-2.34649 3.10214,-4.36818 0,-0.92449 -0.274,-1.78475 -0.74132,-2.50606 0.75855,-0.10159 1.34076,-0.74149 1.34076,-1.52714 0,-0.66712 -0.42324,-1.2332 -1.01586,-1.44654 0.64342,-0.74163 1.03937,-1.69283 1.03937,-2.76632 0,-0.1998 -0.0199,-0.3997 -0.047,-0.59273 1.58823,-0.60277 2.70923,-2.13678 2.70923,-3.93497 0,-1.12428 -0.44738,-2.14044 -1.1653,-2.8956 0.13207,0.0373 0.26748,0.0646 0.40971,0.0646 0.85337,0 1.54477,-0.69392 1.54477,-1.54729 0,-0.85676 -0.6914,-1.54813 -1.54477,-1.54813 -0.33865,0 -0.65019,0.11178 -0.90756,0.29804 -0.30816,-0.57569 -0.86676,-0.99229 -1.5305,-1.10065 0.52151,-0.85338 0.82612,-1.84899 0.82612,-2.92248 0,-0.69421 -0.13157,-1.35409 -0.36185,-1.97042 1.595,-0.59601 2.74281,-2.1334 2.74281,-3.93497 0,-1.05318 -0.38598,-2.01213 -1.01585,-2.75037 1.16831,-0.38605 2.01156,-1.48609 2.01156,-2.78647 0,-1.06671 -0.57221,-1.99804 -1.4222,-2.51277 0.3996,-0.50119 0.63638,-1.131 0.63638,-1.82182 0,-0.1761 -0.0174,-0.34872 -0.0479,-0.51465 0.60955,-0.0305 1.17237,-0.23723 1.63292,-0.58265 -0.0373,0.18287 -0.0546,0.36531 -0.0546,0.55495 0,1.04301 0.5423,1.95768 1.35503,2.47919 -0.16254,0.447 -0.25438,0.92772 -0.25438,1.42891 0,1.71691 1.01615,3.1865 2.49263,3.84346 -0.13546,0.48087 -0.21325,0.98885 -0.21325,1.51035 0,1.78125 0.83961,3.36653 2.14337,4.38246 -1.14122,0.4978 -1.9402,1.63533 -1.9402,2.95941 0,1.32409 0.79565,2.45907 1.93349,2.96026 -0.22689,0.39282 -0.35933,0.84976 -0.35933,1.3374 0,1.0701 0.62714,1.98786 1.53469,2.41455 -0.26075,0.6468 -0.40634,1.35056 -0.40634,2.0888 0,0.88724 0.21267,1.72746 0.58517,2.47247 -0.17948,0.20319 -0.33875,0.41285 -0.49114,0.63974 -0.28107,-0.28446 -0.66973,-0.46008 -1.09981,-0.46008 -0.85337,0 -1.54813,0.69053 -1.54813,1.5473 0,0.85337 0.69476,1.54393 1.54813,1.54393 0.0745,0 0.14213,-0.01 0.21325,-0.0202 -0.0102,0.14223 -0.021,0.28508 -0.021,0.43069 0,1.07349 0.30878,2.06829 0.83367,2.91828 -0.45039,0.85337 -0.70774,1.82581 -0.70774,2.85866 0,1.58484 0.6022,3.02086 1.58087,4.11128 -0.27091,0.44024 -0.42984,0.95498 -0.42984,1.51035 0,1.58146 1.28054,2.86455 2.86538,2.86455 1.40875,0 2.57626,-1.0156 2.81669,-2.35662 0.77549,-0.0847 1.50401,-0.31198 2.16436,-0.65401 0.33864,0.73485 1.08338,1.25009 1.94692,1.25009 1.18863,0 2.15093,-0.9623 2.15093,-2.15093 0,-0.89739 -0.55599,-1.6655 -1.33825,-1.98721 0.21673,-0.46732 0.37281,-0.97206 0.46763,-1.49356 0.46394,0.1253 0.94785,0.19645 1.45242,0.19645 0.061,0 0.1254,-0.007 0.18974,-0.007 0.37589,0.96851 1.3173,1.65223 2.42127,1.65223 0.8466,0 1.59875,-0.40613 2.07285,-1.036 0.26752,0.97528 1.15811,1.69253 2.22144,1.69253 0.80258,0 1.51027,-0.41288 1.92341,-1.03936 0.44701,0.2743 0.96833,0.4374 1.53386,0.4374 1.62209,0 2.93591,-1.31801 2.93591,-2.9401 0,-0.54183 -0.14898,-1.0458 -0.40634,-1.48265 0.2235,0.0745 0.46392,0.11166 0.70774,0.11166 1.27329,0 2.30624,-1.0296 2.30624,-2.30288 0,-0.10837 -0.01,-0.21322 -0.0269,-0.31819 0.49103,0.9448 1.47317,1.58759 2.611,1.58759 1.60177,0 2.90207,-1.27963 2.93255,-2.87462 0.76533,-0.4741 1.3006,-1.29008 1.38526,-2.23489 0.149,0.0508 0.30421,0.0814 0.47014,0.0814 0.85338,0 1.54814,-0.69137 1.54814,-1.54813 0,-0.17609 -0.0306,-0.34877 -0.0882,-0.50793 l -2.3499,-0.75476 -24.55181,-7.90436 -0.0982,-10.48095 c 3.72504,-4.0095 6.63421,-9.17734 8.74055,-14.79539 3.98919,-10.63332 6.12872,-21.875827 6.12872,-27.761406 0,-15.237158 -14.55795,-35.010769 -32.50319,-35.015121 z m -50.31424,98.848647 c -0.4233,0 -0.81997,0.12253 -1.15522,0.3291 -5.841557,2.23842 -10.690627,4.09752 -12.529452,4.84253 -4.121255,1.64579 -7.178992,6.05122 -7.178992,10.4163 v 14.0675 l 22.790424,23.12877 c 0.23028,0.0508 0.47397,0.0747 0.72118,0.0747 1.26313,0 2.36682,-0.68761 2.95605,-1.69337 0.45717,0.1727 0.9553,0.27117 1.47341,0.27117 2.32647,0 4.21287,-1.8864 4.21287,-4.21286 0,-0.16593 -0.0141,-0.33198 -0.0311,-0.49114 0.6231,0.7721 1.57865,1.26688 2.65214,1.26688 1.88285,0 3.42033,-1.52732 3.42033,-3.42032 0,-0.51135 -0.11503,-0.9921 -0.31483,-1.42556 0.67728,-0.24044 1.26602,-0.69114 1.67239,-1.2736 0.43346,0.44362 1.0364,0.71782 1.69337,0.71782 1.31731,0 2.40447,-1.06967 2.40447,-2.37005 0,-0.68745 -0.29166,-1.30439 -0.7556,-1.74123 0.8737,-0.4233 1.53757,-1.20856 1.79832,-2.16352 0.5486,0.60278 1.31099,1.00924 2.16436,1.09729 -0.33864,0.41653 -0.55242,0.94804 -0.55242,1.5305 0,1.31731 1.07022,2.37005 2.40447,2.37005 1.33424,0 2.40447,-1.06967 2.40447,-2.37005 0,-1.08026 -0.71809,-1.99148 -1.69337,-2.28609 0.75855,-0.62649 1.24253,-1.57457 1.24253,-2.63451 0,-0.31494 -0.0438,-0.61299 -0.12509,-0.90084 0.10498,0.007 0.20985,0.0134 0.31483,0.0134 0.48087,0 0.93854,-0.0976 1.35168,-0.27705 0.0373,0.91772 0.78564,1.65223 1.71352,1.65223 0.94819,0 1.72024,-0.77204 1.72024,-1.72023 0,-0.92788 -0.73533,-1.67627 -1.65644,-1.71353 0.17948,-0.41314 0.28125,-0.8708 0.28125,-1.35167 0,-0.29462 -0.0439,-0.57536 -0.11501,-0.84627 0.85676,0 1.55065,-0.69053 1.55065,-1.54729 0,-0.85337 -0.69389,-1.54477 -1.55065,-1.54477 -0.044,0 -0.0844,0.007 -0.12846,0.0101 -0.088,-1.28683 -0.75242,-2.4145 -1.73787,-3.12564 3.4e-4,-0.0982 0.0143,-0.19645 0.0143,-0.29804 0,-2.32647 -1.8864,-4.20867 -4.21287,-4.20867 -0.80935,0 -1.56462,0.23007 -2.20466,0.62967 0.0914,-0.24383 0.14189,-0.50817 0.14189,-0.78247 0,-1.2191 -0.98555,-2.20801 -2.20466,-2.20801 -0.22012,0 -0.42651,0.0339 -0.6263,0.0915 0.0305,-0.19641 0.0479,-0.39962 0.0479,-0.6028 0,-2.32646 -1.88304,-4.21286 -4.20951,-4.21286 -0.7213,0 -1.39879,0.17953 -1.99141,0.49785 -0.53166,-0.86692 -1.35421,-1.52379 -2.35997,-1.82518 0.1253,-0.27769 0.19981,-0.58918 0.19981,-0.91427 0,-1.21911 -0.98891,-2.20802 -2.20802,-2.20802 -0.28784,0 -0.55873,0.058 -0.80932,0.15616 -0.0169,-2.31292 -1.89321,-4.18264 -4.20951,-4.18264 -0.37589,0 -0.73509,0.0546 -1.0805,0.14608 -0.33526,-0.78903 -1.11738,-1.34496 -2.03171,-1.34496 -0.53844,0 -1.02946,0.19377 -1.41213,0.51548 -0.149,-1.07688 -1.06615,-1.90661 -2.18367,-1.90661 z m 103.12615,0.51548 c -1.03624,0.0813 -1.87976,0.84298 -2.07956,1.84197 -0.31494,-0.16254 -0.67016,-0.25438 -1.04944,-0.25438 -1.27329,0 -2.30289,1.0296 -2.30289,2.30289 0,0.12529 0.01,0.24752 0.0302,0.36604 -0.70098,-0.52151 -1.56715,-0.83367 -2.50857,-0.83367 -2.32646,0 -4.21286,1.88304 -4.21286,4.2095 v 0.0202 c -0.42669,-0.10159 -0.87014,-0.16539 -1.33069,-0.16539 -3.08163,0 -5.55782,2.48887 -5.55782,5.56034 0,0.28785 0.0273,0.56858 0.0714,0.84627 -0.32848,-0.14562 -0.69115,-0.22668 -1.07043,-0.22668 -0.87708,0 -1.65237,0.42695 -2.14001,1.07714 -0.50458,-0.16593 -1.03975,-0.25774 -1.59851,-0.25774 -2.7396,0 -4.96752,2.16443 -5.07927,4.87695 -0.1761,-0.0373 -0.35526,-0.0546 -0.54151,-0.0546 -1.47309,0 -2.66893,1.19584 -2.66893,2.66893 0,0.45039 0.11173,0.87003 0.30475,1.24253 -0.4233,-0.24043 -0.91412,-0.37948 -1.43563,-0.37948 -1.62209,0 -2.93927,1.31718 -2.93927,2.93927 0,0.8466 0.36212,1.60916 0.93442,2.14421 v 0.0269 c -0.67728,0.0677 -1.2466,0.52456 -1.46333,1.14766 -0.0881,0.19303 -0.13517,0.40616 -0.13517,0.62967 0,0.54182 0.28108,1.01603 0.70438,1.2971 0.29462,0.22689 0.6574,0.36604 1.057,0.36604 0.73823,0 1.35457,-0.46389 1.61194,-1.11408 0.39959,0.21673 0.85647,0.33834 1.34411,0.33834 0.22012,0 0.43317,-0.0265 0.63974,-0.0739 -0.0169,0.17609 -0.0269,0.35529 -0.0269,0.53815 0,0.67051 0.13235,1.31067 0.3694,1.8999 -0.9482,0.22351 -1.65643,1.06952 -1.65643,2.08544 0,0.31494 0.0678,0.60981 0.18973,0.87734 0.30478,0.77548 1.05635,1.32733 1.9402,1.32733 0.73486,0 1.37544,-0.37894 1.74795,-0.94786 0.13884,-0.19641 0.25043,-0.40943 0.32154,-0.64309 0.66035,0.31493 1.3989,0.49365 2.18116,0.49365 0.24382,0 0.47743,-0.0232 0.7111,-0.0537 -0.13885,0.36912 -0.21745,0.76889 -0.21745,1.18881 0,0.55198 0.13574,1.06994 0.36941,1.53049 -0.10837,-0.0203 -0.21985,-0.0336 -0.33499,-0.0336 -0.94819,0 -1.72023,0.76866 -1.72023,1.72024 0,0.9482 0.77204,1.72024 1.72023,1.72024 0.85677,0 1.56134,-0.63039 1.69002,-1.4499 0.46394,1.82188 2.11285,3.17014 4.06342,3.17014 0.88385,0 1.69277,-0.27151 2.37005,-0.73545 0.20319,1.68982 1.64275,3.00056 3.38675,3.00056 0.88724,0 1.69333,-0.3387 2.30289,-0.90084 -0.007,0.10159 -0.0168,0.20649 -0.0168,0.31147 0,2.32308 1.88556,4.20951 4.21203,4.20951 0.7958,0 1.53779,-0.22347 2.17443,-0.60952 -0.31832,0.43346 -0.50792,0.96822 -0.50792,1.54729 0,1.45277 1.17505,2.62864 2.62443,2.62864 0.87708,0 1.65245,-0.43362 2.12994,-1.09058 l 22.79043,-20.99295 v -15.37385 c 0,-4.66308 -5.01866,-10.49139 -11.0871,-12.56387 -1.35456,-0.46394 -10.3483,-3.38591 -10.3483,-3.38591 z m -51.98495,2.04179 c -1.18863,0 -2.15009,0.96146 -2.15009,2.15009 0,0.8195 0.46367,1.52412 1.14095,1.88646 -0.6468,0.18626 -1.1208,0.77576 -1.1208,1.48013 0,0.85676 0.69392,1.54729 1.54729,1.54729 0.85338,0 1.54813,-0.69053 1.54813,-1.54729 0,-0.51473 -0.25449,-0.96902 -0.64393,-1.25009 1.03285,-0.15577 1.82518,-1.03963 1.82518,-2.1165 0,-1.18863 -0.96149,-2.15009 -2.14673,-2.15009 z m -7.68692,1.99477 -0.0101,0.0907 -0.1083,-0.0571 c 0.0406,-0.0102 0.0811,-0.0234 0.11838,-0.0336 z m 4.66622,7.31752 c -0.85676,0 -1.54729,0.69475 -1.54729,1.54813 0,0.85337 0.69053,1.54729 1.54729,1.54729 0.85337,0 1.54813,-0.69392 1.54813,-1.54729 0,-0.85338 -0.69476,-1.54813 -1.54813,-1.54813 z m -14.2564,1.64636 c -1.21911,0 -2.20802,0.98807 -2.20802,2.20718 0,1.2191 0.98891,2.20465 2.20802,2.20465 1.2191,0 2.20801,-0.98555 2.20801,-2.20465 0,-1.21911 -0.98891,-2.20718 -2.20801,-2.20718 z m 25.01188,3.9207 c -0.95158,0 -1.72696,0.77621 -1.72696,1.72779 0,0.95497 0.77538,1.73031 1.72696,1.73031 0.13884,0 0.27433,-0.0207 0.39962,-0.0546 0.0643,1.21911 1.06688,2.18787 2.29953,2.18787 0.16932,0 0.33197,-0.0207 0.49114,-0.0546 1.0701,-0.12191 1.90242,-1.01587 1.90242,-2.12322 0,-0.39283 -0.11098,-0.75463 -0.29384,-1.07295 -0.36235,-0.79919 -1.16507,-1.35503 -2.09972,-1.35503 -0.37928,0 -0.73534,0.0918 -1.05028,0.25438 -0.21334,-0.71114 -0.86661,-1.23665 -1.64887,-1.23665 z m -23.99267,3.94588 v 0.0101 c -0.85676,0 -1.54729,0.69391 -1.54729,1.54729 0,0.85676 0.69053,1.54729 1.54729,1.54729 0.32509,0 0.63009,-0.10096 0.88069,-0.27705 0.0576,1.13783 0.98528,2.03171 2.13665,2.03171 1.18863,0 2.15009,-0.9623 2.15009,-2.15093 0,-1.18524 -0.96146,-2.14673 -2.15009,-2.14673 -0.59262,0 -1.12763,0.24026 -1.51706,0.62631 -0.16255,-0.67729 -0.7722,-1.18797 -1.50028,-1.18797 z m 30.13901,11.00567 v 0.003 c -1.27329,0 -2.30288,1.0296 -2.30288,2.30289 0,0.29123 0.0546,0.56875 0.1528,0.82612 -0.83306,0.11513 -1.48013,0.82645 -1.48013,1.69337 0,0.24382 0.0538,0.47349 0.14524,0.67668 0.24043,0.60617 0.82957,1.0402 1.52378,1.0402 h 0.0445 c 0.95497,0 1.72696,-0.77204 1.72696,-1.72024 0,-0.0779 -0.0134,-0.15302 -0.0235,-0.22752 0.0711,0.007 0.14213,0.0101 0.21324,0.0101 1.27329,0 2.30289,-1.02876 2.30289,-2.30205 0,-1.27329 -1.0296,-2.30288 -2.30289,-2.30288 z m -18.04949,2.90568 c -1.18863,0 -2.15093,0.96484 -2.15093,2.15009 0,1.18863 0.9623,2.15009 2.15093,2.15009 1.18524,0 2.14673,-0.96146 2.14673,-2.15009 0,-1.18525 -0.96149,-2.15009 -2.14673,-2.15009 z m -12.53028,0.31483 c -0.9482,0 -1.72024,0.76866 -1.72024,1.72024 0,0.94819 0.77204,1.71688 1.72024,1.71688 0.94819,0 1.71772,-0.76869 1.71772,-1.71688 0,-0.95158 -0.76953,-1.72024 -1.71772,-1.72024 z m 2.51949,4.66622 c -1.31732,0 -2.40364,1.07051 -2.40364,2.37089 0,1.19879 0.88372,2.18727 2.03171,2.35998 -0.007,0.088 -0.0168,0.17638 -0.0168,0.26781 -0.73146,-0.60278 -1.66638,-0.96884 -2.68907,-0.96884 -1.53066,0 -2.86848,0.82276 -3.60672,2.03171 -0.62309,-0.68744 -1.52047,-1.1208 -2.52284,-1.1208 -1.59161,0 -2.92606,1.09087 -3.30195,2.56735 -0.5486,-0.37589 -1.20888,-0.59272 -1.92341,-0.59272 -1.88285,0 -3.42033,1.52394 -3.42033,3.42033 0,0.26413 0.0306,0.51762 0.0882,0.76482 -0.90417,-0.82289 -2.10301,-1.33068 -3.42033,-1.33068 -2.10295,0 -3.90413,1.27359 -4.68301,3.0887 -0.5486,-0.3725 -1.20888,-0.59272 -1.92341,-0.59272 -1.88284,0 -3.42032,1.52394 -3.42032,3.42033 0,0.2743 0.0339,0.54191 0.0949,0.79589 l 41.38143,42.02537 c 0.54182,-0.22689 0.92098,-0.76216 0.92098,-1.38526 0,-0.58923 -0.34513,-1.09355 -0.83955,-1.34076 0.58585,-0.20657 1.00914,-0.75516 1.00914,-1.41213 0,-0.61971 -0.37586,-1.15162 -0.91091,-1.3819 0.53167,-0.34879 0.88069,-0.94805 0.88069,-1.62872 0,-0.93126 -0.65012,-1.6933 -1.52043,-1.90326 1.73046,-1.19541 2.86791,-3.18992 2.86791,-5.45204 0,-1.39859 -0.43294,-2.69279 -1.17118,-3.75951 1.19202,-0.74501 1.98386,-2.06533 1.98386,-3.57228 0,-1.69321 -1.00879,-3.16629 -2.46156,-3.83003 0.5723,-0.43685 0.94114,-1.12106 0.94114,-1.89654 0,-0.80936 -0.40292,-1.52354 -1.01586,-1.957 0.3488,-0.41314 0.55578,-0.94468 0.55578,-1.52714 0,-1.31731 -1.07022,-2.37089 -2.40447,-2.37089 -0.1998,0 -0.38968,0.0273 -0.57593,0.0714 0.26753,-0.55198 0.42313,-1.17158 0.42313,-1.82854 0,-0.61294 -0.13487,-1.19618 -0.37192,-1.72108 1.23943,-0.088 2.21474,-1.11707 2.21474,-2.37005 0,-1.01592 -0.65063,-1.89962 -1.56157,-2.23488 0.89063,-0.7721 1.45998,-1.91028 1.45998,-3.18357 0,-1.45616 -0.73867,-2.73904 -1.86296,-3.49421 0.65019,-0.74163 1.04944,-1.7139 1.04944,-2.77724 0,-0.93126 -0.30467,-1.7883 -0.8194,-2.4859 0.66373,-0.23705 1.14178,-0.86693 1.14178,-1.61194 0,-0.94819 -0.76866,-1.72024 -1.72023,-1.72024 -0.57908,0 -1.09051,0.29102 -1.40206,0.73125 -0.76871,-0.95158 -1.94766,-1.56072 -3.26836,-1.56072 -0.61972,0 -1.20204,0.13571 -1.73032,0.37276 -0.40298,-0.7484 -1.19549,-1.26017 -2.10643,-1.26017 z m 23.37979,0.6028 0.021,0.0848 c -1.58145,0 -2.86538,1.28309 -2.86538,2.86455 0,0.48764 0.12583,0.94872 0.33917,1.34831 -0.41314,-0.33864 -0.94137,-0.5457 -1.51706,-0.5457 -1.3207,0 -2.40448,1.06712 -2.40448,2.37089 0,1.13444 0.79208,2.0826 1.85541,2.32303 -0.31155,0.58924 -0.49114,1.25593 -0.49114,1.96707 0,1.35456 0.654,2.57773 1.66315,3.34645 -0.38605,0.71792 -0.60615,1.53668 -0.60615,2.40699 0,1.35117 0.52847,2.57738 1.38861,3.48833 -0.28107,0.63326 -0.44076,1.33128 -0.44076,2.06613 0,0.28446 0.0307,0.56192 0.0747,0.83284 -0.34541,-0.23705 -0.75526,-0.39266 -1.19888,-0.42314 0.29123,-0.39621 0.46763,-0.88384 0.46763,-1.41212 0,-1.3207 -1.07023,-2.37089 -2.40447,-2.37089 -1.3207,0 -2.40447,1.06712 -2.40447,2.37089 0,0.63326 0.24347,1.2054 0.64645,1.63209 -0.99899,0.28445 -1.73367,1.20574 -1.73367,2.29617 0,1.31731 1.07022,2.37005 2.40447,2.37005 0.0745,0 0.14546,-0.0134 0.21996,-0.0202 -0.44023,0.75178 -0.69766,1.6285 -0.69766,2.56314 0,1.77787 0.91118,3.33886 2.28945,4.24981 -1.82189,0.77548 -3.10214,2.58422 -3.10214,4.69056 0,1.52727 0.67367,2.89538 1.74039,3.83003 -1.10397,0.75856 -1.82854,2.02812 -1.82854,3.46735 0,0.58923 0.12245,1.14847 0.33918,1.65643 -0.30817,0.51135 -0.48778,1.10707 -0.48778,1.7471 0,0.73824 0.24014,1.42258 0.63974,1.98134 -0.34542,0.2743 -0.57258,0.69369 -0.57258,1.17117 0,0.51474 0.26116,0.97246 0.65737,1.24338 -0.41314,0.26752 -0.67751,0.72769 -0.67751,1.25597 0,0.0948 0.0108,0.18981 0.0277,0.28124 -0.33864,0.2743 -0.56922,0.69117 -0.56922,1.16866 0,0.6231 0.37919,1.15414 0.91763,1.38442 l 44.59943,-41.17826 c 0.0881,-0.2506 0.13853,-0.51819 0.13853,-0.79926 0,-1.3207 -1.07051,-2.37089 -2.37089,-2.37089 -0.40976,0 -0.79562,0.10513 -1.13088,0.28461 -0.41314,-1.4189 -1.72327,-2.45485 -3.27424,-2.45485 -0.67051,0 -1.29019,0.19621 -1.81847,0.52808 0.007,-0.088 0.0134,-0.17305 0.0134,-0.2611 0,-2.32646 -1.8864,-4.21202 -4.21286,-4.21202 -0.54521,0 -1.06309,0.1084 -1.54057,0.29804 -0.061,-1.26652 -1.10099,-2.27602 -2.3709,-2.27602 -1.32069,0 -2.37005,1.07023 -2.37005,2.40447 0,0.10159 0.007,0.20319 0.0202,0.3014 -0.59939,-0.97529 -1.67641,-1.62873 -2.90568,-1.62873 -0.19641,0 -0.38632,0.0199 -0.57257,0.0504 -0.0271,-2.30275 -1.89914,-4.16165 -4.20867,-4.16165 -0.23705,0 -0.46406,0.024 -0.69095,0.0613 -0.11175,-1.21233 -1.13485,-2.161 -2.37089,-2.161 -1.02946,0 -1.90295,0.65062 -2.2416,1.56156 -0.10497,-0.007 -0.20982,-0.0143 -0.31819,-0.0143 -0.48087,0 -0.94502,0.0712 -1.38526,0.1931 -0.40975,-1.08027 -1.45312,-1.85205 -2.679,-1.85205 z m -9.52889,9.47516 c -0.95158,0 -1.72024,0.77205 -1.72024,1.72024 0,0.51473 0.23043,0.96874 0.586,1.28367 -0.46055,0.43346 -0.74888,1.04962 -0.74888,1.73368 0,1.31731 1.07023,2.37088 2.40448,2.37088 1.3207,0 2.40447,-1.07051 2.40447,-2.37088 0,-0.96852 -0.57574,-1.79855 -1.40541,-2.17444 0.14223,-0.25059 0.23004,-0.53474 0.23004,-0.84291 0,-0.94819 -0.76869,-1.72024 -1.71688,-1.72024 z"
     style="stroke-width:0.338641"
     inkstitch:fill_method="meander_fill"
     inkstitch:meander_scale_percent="25"
     inkstitch:meander_pattern="N4-54d" />
</svg>
