<?xml version="1.0" encoding="UTF-8" standalone="no"?>
<svg
   viewBox="0 0 209.8086 240.00001"
   width="209.80861"
   height="240"
   version="1.1"
   id="svg49"
   inkscape:version="1.3.2 (091e20e, 2023-11-25, custom)"
   sodipodi:docname="GebLogo.svg"
   xmlns:inkscape="http://www.inkscape.org/namespaces/inkscape"
   xmlns:sodipodi="http://sodipodi.sourceforge.net/DTD/sodipodi-0.dtd"
   xmlns="http://www.w3.org/2000/svg"
   xmlns:svg="http://www.w3.org/2000/svg"
   xmlns:inkstitch="http://inkstitch.org/namespace">
  <sodipodi:namedview
     id="namedview49"
     pagecolor="#505050"
     bordercolor="#eeeeee"
     borderopacity="1"
     inkscape:showpageshadow="0"
     inkscape:pageopacity="0"
     inkscape:pagecheckerboard="0"
     inkscape:deskcolor="#505050"
     inkscape:zoom="2.394987"
     inkscape:cx="279.12469"
     inkscape:cy="95.825155"
     inkscape:window-width="1350"
     inkscape:window-height="1237"
     inkscape:window-x="2063"
     inkscape:window-y="225"
     inkscape:window-maximized="0"
     inkscape:current-layer="g41" />
  <metadata
     id="metadata49">
    <inkstitch:min_stitch_len_mm>0</inkstitch:min_stitch_len_mm>
    <inkstitch:collapse_len_mm>3</inkstitch:collapse_len_mm>
    <inkstitch:inkstitch_svg_version>1</inkstitch:inkstitch_svg_version>
  </metadata>
  <desc
     id="desc1">GebLogo(1).dxf - scale = 1.000000, origin = (0.000000, 0.000000), method = manual</desc>
  <defs
     id="defs4">
    <marker
       id="DistanceX"
       orient="auto"
       refX="0"
       refY="0"
       style="overflow:visible">
      <path
         d="M 3,-3 -3,3 M 0,-5 V 5"
         style="stroke:#000000;stroke-width:0.5"
         id="path1" />
    </marker>
    <pattern
       id="Hatch"
       patternUnits="userSpaceOnUse"
       width="8"
       height="8"
       x="0"
       y="0">
      <path
         d="M8 4 l-4,4"
         stroke="#000000"
         stroke-width="0.25"
         linecap="square"
         id="path2" />
      <path
         d="M6 2 l-4,4"
         stroke="#000000"
         stroke-width="0.25"
         linecap="square"
         id="path3" />
      <path
         d="M4 0 l-4,4"
         stroke="#000000"
         stroke-width="0.25"
         linecap="square"
         id="path4" />
    </pattern>
    <symbol
       id="*MODEL_SPACE" />
    <symbol
       id="*PAPER_SPACE" />
  </defs>
  <g
     inkscape:groupmode="layer"
     inkscape:label="Logo"
     id="g41"
     transform="translate(168.808, -929.419)">
    <g
       id="g49"
       transform="matrix(0.62144 0 0 0.62144 -63.9041 351.841)"
       inkscape:label="geb">
      <path
         style="fill:#00a500;fill-opacity:1;stroke:#000000;stroke-width:0.96;stroke-linecap:butt;stroke-linejoin:round;stroke-dasharray:none"
         d="m 137.68782,944.5129 c -7.80026,4.58632 -15.35241,9.81434 -22.88181,15.94752 -3.76471,3.06659 -7.52367,6.35952 -11.30461,9.91173 -1.89048,1.77611 -3.786663,3.61726 -5.691292,5.52684 -1.904629,1.90959 -3.816476,3.88637 -5.728014,5.92338 -15.292298,16.29609 -30.561357,36.44853 -41.986547,56.88403 -5.712595,10.2178 -10.464283,20.5062 -13.782802,30.4101 -2.734466,8.1608 -4.494028,16.0599 -5.028686,23.4374 3.280336,-5.8094 7.668039,-9.968 12.291802,-12.641 2.84384,-1.644 5.776299,-2.728 8.602493,-3.2941 2.826194,-0.5661 5.546698,-0.616 7.97437,-0.1756 1.213836,0.2202 2.355117,0.564 3.396787,1.0304 1.041671,0.4663 1.984089,1.0544 2.822143,1.7527 0.838055,0.6984 1.571336,1.5065 2.20045,2.4082 0.629114,0.9017 1.15437,1.8967 1.58247,2.9717 0.856201,2.15 1.326099,4.6184 1.466993,7.3423 0.140893,2.724 -0.04823,5.7098 -0.526913,8.8904 -0.95737,6.3612 -3.063803,13.4318 -5.981719,19.522 -1.458958,3.045 -3.120837,5.8447 -4.959918,8.1882 -0.91954,1.1717 -1.883724,2.2294 -2.892812,3.1453 -1.009088,0.9158 -2.063416,1.6901 -3.164594,2.2885 -0.550589,0.2992 -1.1129,0.5542 -1.686304,0.7597 -0.573404,0.2055 -1.15888,0.3604 -1.747485,0.4627 -1.177211,0.2046 -2.369358,0.2031 -3.551252,0.031 -2.363787,-0.3447 -4.685422,-1.3641 -6.880112,-2.8023 -2.194691,-1.4382 -4.266498,-3.3 -6.126544,-5.3767 -0.909663,-1.0156 -1.768507,-2.0827 -2.56457,-3.1782 0.35485,1.6479 0.92145,3.2362 1.665844,4.737 1.331052,2.6835 3.231843,5.0856 5.492674,7.0312 2.260831,1.9456 4.880331,3.4333 7.637568,4.3009 2.757237,0.8676 5.648555,1.1168 8.479465,0.6016 1.415456,-0.2575 2.82111,-0.7118 4.215089,-1.348 1.393979,-0.6361 2.77382,-1.4531 4.126576,-2.4288 2.705513,-1.9515 5.301216,-4.5391 7.68589,-7.5598 4.769347,-6.0415 8.690111,-13.8131 11.073829,-21.6196 1.191859,-3.9032 2.000602,-7.815 2.348849,-11.5185 0.174124,-1.8517 0.233091,-3.6505 0.168988,-5.3712 -0.0641,-1.7208 -0.249545,-3.3683 -0.538529,-4.9323 -0.577969,-3.128 -1.570572,-5.9219 -2.832631,-8.2965 -1.262058,-2.3745 -2.794183,-4.3288 -4.439778,-5.7816 -1.645596,-1.4528 -3.400997,-2.4006 -5.11048,-2.8 -0.427371,-0.1 -0.850118,-0.1649 -1.275281,-0.1979 -0.425163,-0.033 -0.85281,-0.035 -1.282896,-0.01 -0.860171,0.049 -1.730343,0.2031 -2.600162,0.4163 -0.86982,0.2133 -1.738544,0.4855 -2.596267,0.7644 -0.857724,0.2788 -1.704064,0.5643 -2.537152,0.8001 -0.833088,0.2357 -1.653284,0.4233 -2.46947,0.4911 -0.408094,0.034 -0.816392,0.037 -1.220847,0 -0.404455,-0.04 -0.798985,-0.1213 -1.178076,-0.2451 -0.758182,-0.2474 -1.451961,-0.6644 -2.045827,-1.2226 -0.593866,-0.5581 -1.089043,-1.2543 -1.481678,-2.0638 -0.785268,-1.6191 -1.170579,-3.6932 -1.132764,-6.1689 0.03781,-2.4756 0.489544,-5.3458 1.29981,-8.5447 0.810267,-3.1989 1.981191,-6.7248 3.472079,-10.4912 2.981774,-7.5328 7.244043,-16.0274 12.472704,-24.7339 5.22866,-8.7064 11.42356,-17.623 18.27272,-25.98616 1.71229,-2.0908 3.465537,-4.14638 5.254706,-6.1568 1.789169,-2.01042 3.614544,-3.97753 5.473498,-5.90238 3.717905,-3.84969 7.570135,-7.53033 11.535715,-11.05028 7.93117,-7.03991 16.31571,-13.43709 24.98678,-19.25909 10.94449,-7.34846 22.34537,-13.78076 33.8691,-19.43382 -10.88454,4.21212 -20.95511,8.91879 -30.64157,14.61413 z"
         id="path41"
         inkscape:label="b"
         inkstitch:stroke_method="running_stitch"
         inkstitch:repeats="1"
         inkstitch:running_stitch_length_mm="1.5"
         inkstitch:fill_method="circular_fill"
         inkstitch:fill_underlay="False"
         inkstitch:underpath="False"
         inkstitch:trim_after="False" />
      <path
         style="fill:#00a500;fill-opacity:1;stroke:#000000;stroke-width:0.96;stroke-linecap:butt;stroke-linejoin:round;stroke-dasharray:none"
         d="m 14.69987,1135.9153 c -2.444616,3.0892 -4.761135,5.4583 -6.944869,7.232 -2.183733,1.7738 -4.236154,2.9533 -6.150699,3.6464 -1.914544,0.693 -3.693837,0.8959 -5.290271,0.7103 -1.596434,-0.1857 -3.002572,-0.7598 -4.169721,-1.571 -1.167149,-0.8113 -2.098109,-1.8554 -2.785564,-2.9912 -0.687455,-1.1358 -1.13415,-2.3642 -1.324006,-3.5722 -0.189857,-1.208 -0.110739,-2.3844 0.194492,-3.4999 0.305231,-1.1155 0.830326,-2.1705 1.512966,-3.186 0.68264,-1.0154 1.523485,-1.9943 2.481315,-2.9696 1.91566,-1.9508 4.302258,-3.8917 6.879501,-6.0205 1.288622,-1.0644 2.625977,-2.1798 3.976131,-3.3443 1.350154,-1.1645 2.711669,-2.3751 4.042962,-3.6189 2.662586,-2.4876 5.204218,-5.1097 7.290457,-7.7514 2.086239,-2.6418 3.711611,-5.3044 4.57152,-7.8381 0.429955,-1.2669 0.670048,-2.4997 0.695638,-3.6886 0.02559,-1.1889 -0.165991,-2.3537 -0.547047,-3.459 -0.762113,-2.2106 -2.284457,-4.17 -4.313407,-5.4942 -1.014476,-0.6622 -2.154809,-1.1662 -3.392608,-1.4671 -1.237799,-0.3009 -2.573312,-0.3994 -3.984228,-0.2458 -1.410917,0.1537 -2.915958,0.5656 -4.468112,1.2091 -1.552153,0.6435 -3.14968,1.5176 -4.743175,2.5836 -3.186989,2.1319 -6.356038,5.0311 -9.150324,8.3572 -2.794286,3.326 -5.214655,7.0791 -6.927152,10.9062 -1.051813,2.3506 -1.835068,4.7286 -2.282875,7.0498 1.872581,-2.9882 3.683587,-5.5619 5.429336,-7.768 2.444616,-3.0892 4.761135,-5.4583 6.944869,-7.232 2.183733,-1.7738 4.236154,-2.9534 6.150699,-3.6464 1.914544,-0.6931 3.693837,-0.8959 5.290271,-0.7103 1.596434,0.1856 3.002572,0.7597 4.169721,1.571 1.167149,0.8113 2.098109,1.8553 2.785564,2.9912 0.687455,1.1358 1.13415,2.3641 1.324006,3.5722 0.189857,1.208 0.110739,2.3844 -0.194492,3.4999 -0.305231,1.1154 -0.830326,2.1704 -1.512966,3.1859 -0.68264,1.0155 -1.523485,1.9944 -2.481315,2.9697 -1.91566,1.9507 -4.302258,3.8917 -6.879501,6.0205 -1.288622,1.0644 -2.625977,2.1798 -3.976131,3.3443 -1.350154,1.1644 -2.711669,2.375 -4.042962,3.6189 -2.662586,2.4876 -5.204218,5.1097 -7.290457,7.7514 -2.086239,2.6418 -3.711611,5.3043 -4.57152,7.8381 -0.429955,1.2669 -0.670048,2.4996 -0.695638,3.6886 -0.02559,1.1889 0.165991,2.3537 0.547047,3.4589 0.762113,2.2106 2.284457,4.17 4.313407,5.4943 1.014476,0.6621 2.154809,1.1661 3.392608,1.4671 1.237799,0.3009 2.573312,0.3994 3.984228,0.2457 1.410917,-0.1536 2.915958,-0.5655 4.468112,-1.209 1.552153,-0.6435 3.14968,-1.5177 4.743175,-2.5836 3.186989,-2.132 6.356038,-5.0311 9.150324,-8.3572 2.794286,-3.3261 5.214655,-7.0791 6.927152,-10.9063 1.051813,-2.3506 1.835068,-4.7285 2.282875,-7.0498 -1.872581,2.9883 -3.683587,5.5619 -5.429336,7.7681 z"
         id="path39"
         inkscape:label="e"
         inkstitch:stroke_method="running_stitch"
         inkstitch:repeats="1"
         inkstitch:running_stitch_length_mm="1.5"
         inkstitch:fill_method="circular_fill"
         inkstitch:fill_underlay="False"
         inkstitch:underpath="False"
         inkstitch:trim_after="False" />
      <path
         style="fill:#00a500;fill-opacity:1;stroke:#000000;stroke-width:0.96;stroke-linecap:butt;stroke-linejoin:round;stroke-dasharray:none"
         d="m -33.205188,1116.4233 c -1.331052,-2.6835 -3.231843,-5.0856 -5.492674,-7.0312 -2.260831,-1.9456 -4.880331,-3.4334 -7.637568,-4.301 -2.757237,-0.8676 -5.648555,-1.1167 -8.479465,-0.6016 -1.415456,0.2576 -2.82111,0.7119 -4.215089,1.348 -1.393979,0.6362 -2.77382,1.4531 -4.126576,2.4289 -2.705513,1.9515 -5.301216,4.5391 -7.68589,7.5598 -4.769347,6.0415 -8.690111,13.8131 -11.073829,21.6196 -1.191859,3.9032 -2.000602,7.815 -2.348849,11.5185 -0.174124,1.8517 -0.233091,3.6505 -0.168988,5.3712 0.0641,1.7207 0.249545,3.3683 0.538529,4.9323 0.577969,3.128 1.570572,5.9218 2.832631,8.2964 1.262058,2.3746 2.794183,4.3289 4.439778,5.7817 1.645596,1.4527 3.400997,2.4006 5.11048,2.7999 0.427371,0.1 0.850118,0.165 1.275281,0.198 0.425163,0.033 0.85281,0.035 1.282896,0.01 0.860171,-0.049 1.730343,-0.203 2.600162,-0.4163 0.86982,-0.2132 1.738544,-0.4854 2.596267,-0.7643 0.857724,-0.2788 1.704064,-0.5643 2.537152,-0.8001 0.833088,-0.2357 1.653284,-0.4233 2.46947,-0.4911 0.408094,-0.034 0.816392,-0.037 1.220847,0 0.404455,0.04 0.798985,0.1213 1.178076,0.245 0.758182,0.2475 1.451961,0.6645 2.045827,1.2226 0.593866,0.5582 1.089043,1.2544 1.481678,2.0639 0.785268,1.6191 1.170579,3.6932 1.132764,6.1688 -0.03781,2.4757 -0.489544,5.3459 -1.29981,8.5448 -0.810267,3.1989 -1.981191,6.7248 -3.472079,10.4912 -2.981774,7.5328 -7.244043,16.0274 -12.472704,24.7338 -5.22866,8.7065 -11.42356,17.623 -18.27272,25.9862 -1.71229,2.0908 -3.465537,4.1464 -5.254706,6.1568 -1.789169,2.0104 -3.614544,3.9776 -5.473498,5.9024 -3.717905,3.8497 -7.570135,7.5303 -11.535715,11.0503 -7.93117,7.0399 -16.31571,13.4371 -24.98678,19.2591 -10.94449,7.3484 -22.34537,13.7807 -33.8691,19.4325 10.88454,-4.2134 20.95511,-8.9201 30.64157,-14.6154 7.80026,-4.5863 15.35241,-9.8144 22.88181,-15.9476 3.76471,-3.0665 7.52367,-6.3595 11.30461,-9.9117 1.89048,-1.7761 3.786663,-3.6172 5.691292,-5.5268 1.904629,-1.9096 3.816476,-3.8864 5.728014,-5.9234 15.292298,-16.2961 30.561357,-36.4485 41.986547,-56.884 5.712595,-10.2178 10.464283,-20.5063 13.782802,-30.4101 2.734466,-8.1608 4.494028,-16.0599 5.028686,-23.4374 -3.280336,5.8093 -7.668039,9.968 -12.291802,12.6409 -2.84384,1.6441 -5.776299,2.728 -8.602493,3.2941 -2.826194,0.5661 -5.546698,0.6161 -7.97437,0.1756 -1.213836,-0.2202 -2.355117,-0.564 -3.396787,-1.0303 -1.041671,-0.4663 -1.984089,-1.0544 -2.822143,-1.7528 -0.838055,-0.6983 -1.571336,-1.5064 -2.20045,-2.4082 -0.629114,-0.9017 -1.15437,-1.8966 -1.58247,-2.9716 -0.856201,-2.15 -1.326099,-4.6184 -1.466993,-7.3423 -0.140893,-2.724 0.04823,-5.7098 0.526913,-8.8904 0.95737,-6.3613 3.063803,-13.4319 5.981719,-19.522 1.458958,-3.0451 3.120837,-5.8448 4.959918,-8.1882 0.91954,-1.1717 1.883724,-2.2295 2.892812,-3.1453 1.009088,-0.9158 2.063416,-1.6901 3.164594,-2.2885 0.550589,-0.2992 1.1129,-0.5542 1.686304,-0.7597 0.573404,-0.2056 1.15888,-0.3605 1.747485,-0.4628 1.177211,-0.2045 2.369358,-0.203 3.551252,-0.031 2.363787,0.3448 4.685422,1.3642 6.880112,2.8024 2.194691,1.4382 4.266498,3.2999 6.126544,5.3766 0.909663,1.0157 1.768507,2.0828 2.56457,3.1796 -0.35485,-1.6467 -0.92145,-3.235 -1.665844,-4.7358 z"
         id="path37"
         inkscape:label="g"
         inkstitch:stroke_method="running_stitch"
         inkstitch:repeats="1"
         inkstitch:running_stitch_length_mm="1.5"
         inkstitch:fill_method="circular_fill"
         inkstitch:fill_underlay="False"
         inkstitch:underpath="False"
         inkstitch:trim_after="False" />
    </g>
  </g>
</svg>
